<svg clip-rule="evenodd" fill-rule="evenodd" height="2048" image-rendering="optimizeQuality" shape-rendering="geometricPrecision" text-rendering="geometricPrecision" viewBox="0 0 2048 2048" width="2048" xmlns="http://www.w3.org/2000/svg"><path d="m794 416h459c42 0 81 17 109 45s45 66 45 109v85h-767v-85c0-42 17-81 45-109s66-45 109-45z" fill="#263238"/><path d="m1408 640h153 150c23 0 43 9 58 24s24 35 24 58v828c0 23-9 43-24 58s-35 24-58 24h-1372c-23 0-43-9-58-24s-24-35-24-58v-828c0-23 9-43 24-58s35-24 58-24h259 44 767z" fill="#37474f"/><path d="m1792 880v448h-1536v-448z" fill="#122129"/><path d="m1024 704c115 0 219 47 294 122s122 179 122 294-47 219-122 294-179 122-294 122-219-47-294-122-122-179-122-294 47-219 122-294 179-122 294-122z" fill="#263238"/><path d="m1273 871c-64-64-152-103-249-103s-185 39-249 103-103 152-103 249 39 185 103 249 152 103 249 103 185-39 249-103 103-152 103-249-39-185-103-249z" fill="#90a4ae"/><path d="m1134 936c30 35-112 9-198 81-87 72-86 216-115 181-30-35-37-187 50-259s234-38 264-3z" fill="#eceff1"/><path d="m414 610h153c9 0 16 7 16 16v16h-185v-16c0-9 7-16 16-16z" fill="#212121"/><circle cx="1648" cy="752" fill="#ff9800" r="38"/><path d="m794 416h459c42 0 81 17 109 45 5 5 10 11 15 17h-706c5-6 9-12 15-17 28-28 66-45 109-45z" fill="#1f2a30"/><path d="m0 0h2048v2048h-2048z" fill="none"/></svg>