<svg clip-rule="evenodd" fill-rule="evenodd" height="2048" image-rendering="optimizeQuality" shape-rendering="geometricPrecision" text-rendering="geometricPrecision" width="2048" xmlns="http://www.w3.org/2000/svg"><g fill-rule="nonzero"><path d="m1611 858v905h-125v-688h-376v688h-686v-970h1187z" fill="#bdbdbd"/><path d="m249 800 775-544 761 544z" fill="#d50000"/><path d="m249 800 775-544v544z" fill="#c60404"/><path d="m986 1075h-375v375h375z" fill="#a1887f"/><path d="m976 1085h-356v356h356zm-365-20h385v395h-395v-395z" fill="#616161"/><path d="m1036 1066h-474v31h474z" fill="#d50000"/></g><path d="m1110 1106v657h376v-688h-376z" fill="#a1887f"/><path d="m1120 1097v646h356v-667h-355v21zm-20 625v-666h395v707h-396v-41z" fill="#616161" fill-rule="nonzero"/><path d="m494 1741h1140v51h-1140z" fill="#616161"/><path d="m442 1689h-92c-28 0-51 23-51 51v51h195v-51c0-28-23-51-51-51zm232 41h-56c-17 0-31 14-31 31v31h117v-31c0-17-14-31-31-31z" fill="#689f38"/><path d="m575 1657h-121c-37 0-67 30-67 67v62c0 3 2 5 5 5h250v-67c0-37-30-67-67-67z" fill="#8bc34a"/><path d="m1594 1657h44c37 0 67 30 67 67v32c0 19-16 35-35 35h-143v-67c0-37 30-67 67-67z" fill="#689f38"/><path d="m1655 1689h92c28 0 51 23 51 51v51h-195v-51c0-28 23-51 51-51z" fill="#8bc34a"/><path d="m1101 1763h402v29h-402z" fill="#757575"/><circle cx="1184" cy="1408" fill="#616161" r="32"/><path d="m0 0h2048v2048h-2048z" fill="none"/></svg>